<svg xmlns="http://www.w3.org/2000/svg" width="1254" height="836" viewBox="0 0 1254 836">
<g>
<path d="M 520.77,475.40 L 520.75,472.06 L 520.73,465.62 L 520.72,462.45 L 520.72,456.45 L 520.72,453.52 L 520.73,448.10 L 520.74,445.48 L 520.77,440.77 L 520.79,438.52 L 520.83,434.67 L 520.86,432.86 L 520.92,430.00 L 520.93,429.35 L 520.97,428.26 L 520.99,427.75 L 521.02,426.96 L 521.04,426.60 L 521.09,426.12 L 521.15,425.76 L 521.21,425.67 L 521.71,425.51 L 522.03,425.44 L 523.06,425.33 L 523.65,425.27 L 525.23,425.19 L 526.09,425.15 L 528.21,425.10 L 529.35,425.08 L 532.04,425.07 L 533.45,425.07 L 536.71,425.09 L 538.41,425.10 L 542.24,425.15 L 548.65,425.27 L 550.15,425.31 L 552.91,425.37 L 554.26,425.40 L 556.73,425.46 L 559.14,425.52 L 563.16,425.64 L 565.05,425.71 L 568.19,425.85 L 569.67,425.93 L 572.09,426.10 L 573.24,426.20 L 575.13,426.42 L 576.03,426.54 L 577.57,426.83 L 581.69,427.99 L 583.16,428.50 L 585.91,429.79 L 587.25,430.48 L 589.73,432.11 L 590.94,432.96 L 593.13,434.89 L 594.19,435.90 L 596.07,438.11 L 596.97,439.26 L 598.52,441.73 L 599.25,442.99 L 600.45,445.69 L 601.00,447.07 L 601.82,449.97 L 602.61,454.52 L 602.78,456.12 L 602.82,459.22 L 602.80,460.75 L 602.47,463.71 L 602.26,465.17 L 601.57,467.97 L 601.19,469.35 L 600.14,471.98 L 599.58,473.26 L 598.19,475.68 L 597.45,476.87 L 595.73,479.07 L 594.83,480.14 L 592.78,482.10 L 589.34,484.74 L 588.61,485.22 L 587.27,486.16 L 586.63,486.62 L 585.58,487.42 L 585.09,487.80 L 584.44,488.38 L 584.02,488.89 L 584.02,488.93 L 584.24,489.36 L 584.38,489.63 L 584.85,490.47 L 585.12,490.94 L 585.82,492.14 L 586.20,492.79 L 587.10,494.32 L 587.57,495.11 L 588.64,496.91 L 589.20,497.83 L 590.41,499.85 L 594.46,506.50 L 604.87,523.50 L 591.80,523.78 L 590.41,523.81 L 588.03,523.85 L 586.90,523.86 L 585.00,523.86 L 584.10,523.86 L 582.60,523.82 L 581.90,523.79 L 580.75,523.70 L 579.68,523.60 L 578.30,523.23 L 576.86,522.37 L 576.35,521.91 L 575.55,520.93 L 575.00,519.83 L 575.00,519.71 L 574.66,518.92 L 574.44,518.45 L 573.73,517.09 L 573.34,516.36 L 572.35,514.61 L 570.68,511.73 L 570.08,510.74 L 568.69,508.39 L 567.98,507.18 L 566.48,504.64 L 565.74,503.37 L 564.32,500.94 L 562.47,497.75 L 558.58,491.00 L 551.79,491.00 L 545.00,491.00 L 545.00,507.50 L 545.00,524.00 L 533.02,524.00 L 521.04,524.00 L 520.77,475.40 M 561.54,471.61 L 563.47,471.48 L 567.31,470.92 L 568.20,470.77 L 569.69,470.43 L 571.31,469.90 L 572.11,469.54 L 573.51,468.51 L 574.18,467.95 L 575.30,466.59 L 575.83,465.88 L 576.65,464.28 L 577.02,463.45 L 577.52,461.69 L 577.73,460.79 L 577.89,458.93 L 577.93,458.00 L 577.73,456.14 L 577.59,455.21 L 577.02,453.42 L 575.72,450.91 L 574.85,449.63 L 573.14,447.82 L 572.68,447.43 L 571.66,446.79 L 571.12,446.50 L 569.86,446.04 L 569.19,445.83 L 567.61,445.53 L 566.77,445.40 L 564.77,445.22 L 563.71,445.14 L 561.19,445.06 L 556.75,445.01 L 545.00,445.00 L 545.00,458.42 L 545.00,460.25 L 545.01,463.24 L 545.02,464.64 L 545.09,466.85 L 545.13,467.87 L 545.30,469.41 L 545.41,470.11 L 545.73,471.10 L 545.92,471.53 L 546.44,472.07 L 546.74,472.29 L 547.51,472.49 L 547.93,472.56 L 549.01,472.55 L 551.00,472.39 L 551.48,472.34 L 552.91,472.23 L 553.69,472.17 L 555.54,472.03 L 557.45,471.89 M 621.00,474.50 L 621.00,425.00 L 633.00,425.00 L 645.00,425.00 L 645.00,474.50 L 645.00,524.00 L 633.00,524.00 L 621.00,524.00 L 621.00,474.50 M 664.24,474.75 L 664.50,425.50 L 682.50,425.20 L 684.93,425.16 L 689.55,425.15 L 691.82,425.15 L 696.13,425.24 L 698.24,425.29 L 702.22,425.47 L 704.17,425.57 L 707.79,425.84 L 709.56,425.99 L 712.83,426.35 L 714.42,426.54 L 717.31,426.99 L 718.71,427.23 L 721.21,427.76 L 724.50,428.67 L 725.83,429.10 L 728.39,430.14 L 729.65,430.68 L 732.05,431.93 L 734.40,433.23 L 738.63,436.42 L 740.65,438.11 L 744.17,442.03 L 745.85,444.07 L 748.63,448.64 L 749.93,450.99 L 751.93,456.14 L 752.83,458.77 L 754.02,464.42 L 754.50,467.29 L 754.82,473.36 L 754.29,482.85 L 753.96,485.45 L 752.81,490.35 L 752.15,492.75 L 750.37,497.22 L 749.40,499.40 L 747.02,503.42 L 745.75,505.37 L 742.80,508.89 L 741.25,510.59 L 737.75,513.59 L 735.94,515.03 L 731.93,517.47 L 729.86,518.62 L 725.37,520.48 L 718.12,522.56 L 717.55,522.68 L 716.17,522.90 L 715.45,523.01 L 713.76,523.19 L 712.87,523.28 L 710.84,523.44 L 709.78,523.51 L 707.40,523.63 L 706.16,523.69 L 703.40,523.79 L 701.97,523.83 L 698.81,523.89 L 697.18,523.92 L 693.60,523.96 L 687.74,523.98 L 663.98,524.00 L 664.24,474.75 M 704.79,503.99 L 706.08,503.85 L 708.33,503.57 L 709.41,503.42 L 711.29,503.10 L 712.19,502.93 L 713.76,502.54 L 714.52,502.33 L 715.86,501.84 L 717.16,501.32 L 719.36,499.86 L 722.64,496.84 L 723.40,496.03 L 724.70,494.49 L 725.32,493.72 L 726.36,492.19 L 726.86,491.42 L 727.67,489.83 L 728.04,489.02 L 728.64,487.29 L 728.92,486.40 L 729.33,484.45 L 729.52,483.44 L 729.77,481.20 L 729.88,480.04 L 729.99,477.42 L 730.03,473.00 L 730.01,471.44 L 729.88,468.95 L 729.78,467.77 L 729.40,465.74 L 729.18,464.73 L 728.47,462.72 L 726.92,459.25 L 726.28,457.94 L 724.88,455.61 L 724.15,454.50 L 722.55,452.57 L 721.71,451.66 L 719.86,450.11 L 718.90,449.37 L 716.74,448.17 L 715.62,447.61 L 713.11,446.73 L 711.81,446.32 L 708.91,445.74 L 707.40,445.49 L 704.05,445.18 L 698.47,445.00 L 689.00,445.00 L 689.00,474.43 L 689.00,476.13 L 689.00,479.24 L 689.00,480.75 L 689.01,483.50 L 689.01,484.83 L 689.02,487.24 L 689.03,488.41 L 689.05,490.51 L 689.06,491.52 L 689.08,493.32 L 689.09,494.19 L 689.13,495.72 L 689.16,497.19 L 689.27,499.40 L 689.33,500.41 L 689.49,501.84 L 689.57,502.47 L 689.79,503.29 L 689.91,503.63 L 690.21,504.02 L 690.75,504.31 L 691.46,504.50 L 692.76,504.72 L 693.45,504.80 L 695.16,504.81 L 695.65,504.80 L 696.80,504.74 L 697.41,504.70 L 698.87,504.58 L 699.65,504.51 L 701.50,504.33 L 702.48,504.23 M 770.88,523.75 L 770.88,523.74 L 770.87,523.47 L 770.87,523.29 L 770.86,522.69 L 770.85,522.36 L 770.84,521.45 L 770.84,520.96 L 770.82,519.77 L 770.82,519.13 L 770.81,517.66 L 770.80,516.90 L 770.79,515.17 L 770.77,513.38 L 770.75,509.11 L 770.73,506.86 L 770.70,501.78 L 770.69,499.15 L 770.66,493.39 L 770.64,490.44 L 770.61,484.15 L 770.57,474.25 L 770.37,425.00 L 804.19,425.00 L 838.00,425.00 L 838.00,435.00 L 838.00,445.00 L 816.47,445.00 L 794.93,445.00 L 795.22,455.25 L 795.50,465.50 L 814.50,465.77 L 833.50,466.04 L 833.18,475.02 L 832.86,484.00 L 813.89,484.00 L 794.93,484.00 L 795.22,494.25 L 795.50,504.50 L 816.75,504.50 L 838.00,504.50 L 838.00,514.25 L 838.00,524.00 L 804.50,524.00 L 802.20,524.00 L 797.77,523.99 L 795.59,523.99 L 791.48,523.98 L 789.48,523.97 L 785.78,523.96 L 784.00,523.95 L 780.81,523.93 L 779.28,523.92 L 776.69,523.89 L 775.48,523.88 L 773.57,523.85 L 772.72,523.83 L 771.59,523.80 L 771.14,523.78 M 855.67,523.33 L 855.64,523.31 L 855.60,523.01 L 855.58,522.82 L 855.53,522.20 L 855.51,521.85 L 855.47,520.93 L 855.45,520.43 L 855.41,519.21 L 855.37,517.93 L 855.29,514.57 L 855.26,512.77 L 855.20,508.49 L 855.17,506.24 L 855.11,501.15 L 855.09,498.53 L 855.05,492.78 L 855.04,489.84 L 855.01,483.57 L 855.00,473.73 L 855.00,424.79 L 881.75,425.27 L 883.23,425.30 L 885.96,425.35 L 887.29,425.37 L 889.74,425.43 L 892.12,425.48 L 896.13,425.59 L 898.01,425.65 L 901.16,425.78 L 902.64,425.86 L 905.11,426.03 L 906.27,426.12 L 908.21,426.33 L 909.13,426.45 L 910.73,426.73 L 915.06,427.87 L 917.15,428.54 L 920.86,430.32 L 922.64,431.28 L 925.76,433.67 L 927.26,434.95 L 929.86,438.00 L 933.23,443.37 L 933.95,444.76 L 934.93,446.94 L 935.36,447.98 L 935.87,449.95 L 936.08,450.98 L 936.26,453.46 L 936.29,454.15 L 936.32,455.72 L 936.31,458.50 L 936.30,460.01 L 936.18,462.70 L 936.10,463.98 L 935.85,466.22 L 935.70,467.28 L 935.32,469.08 L 934.58,471.32 L 934.33,471.89 L 933.63,473.14 L 933.26,473.79 L 932.34,475.14 L 931.37,476.51 L 928.99,479.32 L 927.76,480.70 L 925.14,483.19 L 921.38,486.07 L 920.45,486.65 L 918.99,487.80 L 918.69,488.07 L 918.27,488.53 L 918.00,489.03 L 918.00,489.08 L 918.21,489.52 L 918.34,489.79 L 918.79,490.62 L 919.04,491.08 L 919.70,492.25 L 920.05,492.87 L 920.89,494.31 L 921.76,495.82 L 923.88,499.43 L 924.99,501.30 L 927.38,505.30 L 928.59,507.30 L 930.97,511.24 L 932.14,513.16 L 934.25,516.59 L 934.75,517.39 L 935.65,518.82 L 936.08,519.51 L 936.82,520.66 L 937.16,521.19 L 937.70,522.00 L 938.26,522.78 L 938.36,522.91 L 938.41,523.13 L 938.40,523.23 L 938.18,523.40 L 938.03,523.48 L 937.52,523.61 L 937.22,523.66 L 936.36,523.75 L 935.88,523.79 L 934.64,523.83 L 933.96,523.85 L 932.30,523.86 L 931.41,523.86 L 929.28,523.84 L 925.51,523.78 L 911.73,523.50 L 902.61,507.28 L 893.50,491.06 L 886.25,491.03 L 879.00,491.00 L 879.00,507.50 L 879.00,524.00 L 867.67,524.00 L 866.11,524.00 L 863.21,523.95 L 861.82,523.91 L 859.47,523.80 L 858.38,523.74 L 856.82,523.59 L 856.49,523.55 L 856.03,523.47 L 855.84,523.42 M 906.19,469.32 L 907.33,468.66 L 909.03,467.20 L 909.80,466.43 L 910.82,464.64 L 911.26,463.68 L 911.67,461.38 L 911.70,457.18 L 911.63,456.09 L 911.38,454.38 L 911.24,453.58 L 910.79,452.27 L 910.52,451.65 L 909.76,450.50 L 908.15,448.68 L 904.97,445.50 L 891.98,445.17 L 879.00,444.84 L 879.00,458.34 L 879.00,460.37 L 879.07,463.91 L 879.12,465.57 L 879.27,468.23 L 879.32,468.84 L 879.42,469.85 L 879.47,470.33 L 879.59,471.07 L 879.65,471.40 L 879.79,471.85 L 880.00,472.17 L 880.07,472.19 L 880.43,472.22 L 880.64,472.24 L 881.26,472.25 L 881.93,472.26 L 883.93,472.22 L 885.01,472.19 L 887.62,472.09 L 891.95,471.88 L 893.99,471.76 L 897.27,471.48 L 898.79,471.33 L 901.20,470.96 L 902.32,470.76 L 904.07,470.26 L 904.89,469.99 M 439.06,519.43 L 436.58,518.47 L 432.32,516.28 L 430.29,515.13 L 426.77,512.40 L 425.09,510.95 L 422.10,507.50 L 418.01,501.34 L 417.19,499.90 L 415.69,496.26 L 414.97,494.37 L 413.78,490.23 L 413.23,488.15 L 412.48,484.02 L 412.00,478.41 L 412.00,473.95 L 409.57,475.55 L 409.00,475.92 L 408.20,476.37 L 407.85,476.55 L 407.34,476.59 L 407.10,476.56 L 406.71,476.17 L 406.03,475.06 L 405.81,474.64 L 405.58,473.85 L 405.51,473.45 L 405.61,472.56 L 405.71,472.09 L 406.18,470.95 L 407.34,468.74 L 408.83,466.12 L 411.55,461.10 L 412.87,458.64 L 415.22,454.01 L 416.34,451.74 L 418.28,447.55 L 419.20,445.52 L 420.71,441.86 L 421.41,440.10 L 422.46,437.03 L 422.92,435.57 L 423.48,433.17 L 423.69,432.05 L 423.74,430.38 L 423.18,428.78 L 422.80,428.40 L 422.03,428.20 L 421.64,428.21 L 420.77,428.84 L 420.32,429.27 L 419.26,430.83 L 418.97,431.29 L 418.36,432.38 L 417.34,434.32 L 416.57,435.84 L 414.63,439.51 L 413.61,441.42 L 411.30,445.66 L 408.92,449.98 L 403.79,459.04 L 402.54,461.24 L 400.14,465.35 L 398.98,467.34 L 396.91,470.81 L 396.42,471.63 L 395.53,473.08 L 395.10,473.78 L 394.35,474.96 L 393.99,475.52 L 393.40,476.41 L 392.72,477.35 L 392.28,477.90 L 391.11,479.08 L 390.49,479.66 L 389.05,480.82 L 388.32,481.38 L 386.79,482.39 L 384.56,483.62 L 383.45,484.14 L 381.50,484.86 L 380.52,485.18 L 378.31,485.58 L 377.71,485.66 L 376.35,485.78 L 375.63,485.83 L 373.98,485.90 L 373.10,485.93 L 371.07,485.96 L 367.50,485.97 L 366.68,485.97 L 364.59,485.93 L 363.48,485.91 L 360.91,485.82 L 359.57,485.77 L 356.60,485.63 L 355.08,485.56 L 351.83,485.39 L 348.52,485.21 L 341.46,484.77 L 331.00,484.00 L 328.97,483.84 L 325.27,483.54 L 323.47,483.40 L 320.21,483.15 L 318.63,483.02 L 315.79,482.81 L 314.41,482.71 L 311.94,482.54 L 310.74,482.47 L 308.61,482.34 L 307.58,482.28 L 305.75,482.20 L 303.99,482.14 L 301.24,482.13 L 299.97,482.15 L 297.97,482.34 L 297.05,482.45 L 295.54,482.82 L 291.46,484.68 L 290.36,485.29 L 288.53,486.13 L 287.62,486.50 L 285.55,486.96 L 284.99,487.05 L 283.68,487.19 L 282.98,487.26 L 281.35,487.35 L 280.48,487.39 L 278.41,487.44 L 274.73,487.50 L 262.79,487.64 L 257.84,495.07 L 256.64,496.86 L 254.25,500.11 L 253.05,501.68 L 250.64,504.48 L 249.43,505.82 L 246.97,508.20 L 245.73,509.33 L 243.21,511.30 L 241.93,512.23 L 239.31,513.81 L 237.99,514.55 L 235.25,515.76 L 233.86,516.32 L 230.97,517.17 L 226.46,518.08 L 224.96,518.29 L 222.00,518.49 L 220.53,518.56 L 217.63,518.47 L 216.19,518.40 L 213.37,518.04 L 211.97,517.83 L 209.23,517.21 L 207.88,516.87 L 205.25,516.00 L 203.95,515.54 L 201.45,514.43 L 200.21,513.84 L 197.84,512.50 L 196.68,511.81 L 194.46,510.25 L 193.37,509.45 L 191.32,507.69 L 190.32,506.78 L 188.45,504.83 L 187.54,503.82 L 185.87,501.69 L 185.06,500.59 L 183.60,498.28 L 182.90,497.11 L 181.67,494.63 L 181.09,493.38 L 180.10,490.76 L 179.64,489.43 L 178.92,486.67 L 178.14,482.39 L 177.99,481.25 L 177.77,479.17 L 177.67,478.16 L 177.56,476.30 L 177.47,474.49 L 177.64,471.24 L 177.79,469.64 L 178.47,466.46 L 180.10,461.21 L 180.36,460.49 L 180.84,459.12 L 181.07,458.47 L 181.44,457.34 L 181.61,456.82 L 181.85,456.06 L 182.00,455.47 L 182.00,455.41 L 181.66,455.55 L 181.44,455.66 L 180.74,456.11 L 180.34,456.37 L 179.37,457.06 L 177.69,458.30 L 176.18,459.46 L 172.81,461.52 L 171.12,462.48 L 167.84,463.98 L 167.05,464.31 L 165.58,464.82 L 164.87,465.05 L 163.63,465.34 L 163.04,465.45 L 162.08,465.49 L 161.05,465.23 L 160.62,464.95 L 160.06,464.13 L 159.83,463.68 L 159.65,462.52 L 159.60,461.90 L 159.79,460.42 L 159.93,459.64 L 160.48,457.85 L 160.80,456.91 L 161.72,454.83 L 162.22,453.75 L 163.48,451.39 L 164.16,450.17 L 165.78,447.54 L 168.59,443.33 L 172.90,437.16 L 168.48,433.83 L 167.76,433.28 L 166.58,432.27 L 166.04,431.77 L 165.22,430.80 L 164.86,430.32 L 164.40,429.35 L 164.22,428.86 L 164.12,427.83 L 164.11,427.30 L 164.37,426.15 L 164.55,425.55 L 165.16,424.23 L 165.52,423.55 L 166.49,422.00 L 168.35,419.36 L 169.86,417.33 L 172.57,413.98 L 173.91,412.39 L 176.65,409.55 L 178.07,408.15 L 181.32,405.35 L 182.18,404.63 L 184.09,403.12 L 187.28,400.69 L 189.04,399.37 L 193.25,397.05 L 195.45,395.95 L 200.47,394.10 L 203.07,393.22 L 208.79,391.83 L 211.74,391.19 L 218.07,390.28 L 221.31,389.88 L 228.15,389.45 L 231.62,389.30 L 238.87,389.38 L 242.54,389.48 L 250.09,390.07 L 261.64,391.55 L 264.22,391.96 L 269.00,392.97 L 271.32,393.50 L 275.61,394.74 L 277.69,395.39 L 281.50,396.87 L 283.34,397.65 L 286.68,399.38 L 288.29,400.29 L 291.18,402.29 L 292.57,403.32 L 295.02,405.59 L 296.20,406.76 L 298.23,409.30 L 300.81,413.44 L 301.37,414.50 L 302.16,416.33 L 302.52,417.23 L 302.97,419.04 L 303.16,419.99 L 303.36,422.22 L 303.46,426.50 L 303.45,427.77 L 303.33,430.15 L 303.24,431.31 L 302.93,433.48 L 302.57,435.61 L 301.26,439.39 L 300.50,441.22 L 298.30,444.58 L 293.90,449.40 L 293.29,449.97 L 292.24,450.96 L 291.75,451.44 L 290.96,452.26 L 290.22,453.05 L 289.42,454.23 L 289.12,454.76 L 289.14,455.55 L 289.97,456.48 L 290.34,456.71 L 291.45,456.60 L 292.05,456.46 L 293.53,455.69 L 294.31,455.25 L 296.04,453.96 L 296.92,453.26 L 298.76,451.58 L 299.68,450.70 L 301.51,448.73 L 302.41,447.73 L 304.10,445.61 L 304.91,444.54 L 306.32,442.39 L 308.00,439.27 L 309.04,436.91 L 310.37,431.93 L 310.92,429.41 L 311.25,424.28 L 311.29,421.72 L 310.61,416.69 L 310.38,415.45 L 309.73,413.02 L 308.46,409.51 L 307.90,408.18 L 306.48,405.68 L 305.71,404.46 L 303.87,402.14 L 302.90,401.01 L 300.64,398.88 L 299.45,397.84 L 296.76,395.89 L 295.36,394.93 L 292.22,393.15 L 290.59,392.28 L 287.01,390.66 L 285.15,389.87 L 281.10,388.41 L 274.50,386.38 L 273.66,386.15 L 271.72,385.71 L 270.71,385.49 L 268.45,385.08 L 266.13,384.68 L 260.72,383.98 L 257.92,383.65 L 251.82,383.10 L 248.72,382.85 L 242.27,382.46 L 239.04,382.30 L 232.60,382.10 L 229.41,382.03 L 223.31,382.04 L 220.34,382.08 L 214.94,382.31 L 213.65,382.39 L 211.26,382.58 L 208.00,382.93 L 206.21,383.17 L 201.88,383.76 L 200.82,383.90 L 198.83,384.18 L 196.29,384.53 L 195.64,384.62 L 194.57,384.76 L 194.07,384.82 L 193.26,384.89 L 192.51,384.94 L 191.55,384.73 L 191.13,384.57 L 190.54,383.81 L 189.60,381.87 L 189.09,380.69 L 188.14,378.53 L 187.68,377.48 L 186.86,375.58 L 186.06,373.74 L 184.81,370.74 L 184.24,369.34 L 183.41,367.11 L 183.04,366.08 L 182.59,364.47 L 182.41,363.73 L 182.31,362.58 L 182.30,362.06 L 182.50,361.22 L 182.63,360.83 L 183.11,360.15 L 184.08,359.14 L 184.68,358.58 L 186.54,357.51 L 189.39,356.44 L 190.24,356.26 L 192.47,355.59 L 195.50,354.47 L 195.88,354.30 L 196.94,353.89 L 197.52,353.68 L 198.95,353.18 L 199.71,352.92 L 201.45,352.35 L 202.36,352.05 L 204.36,351.42 L 206.42,350.77 L 211.07,349.37 L 213.46,348.67 L 218.45,347.23 L 220.94,346.52 L 225.83,345.17 L 228.23,344.52 L 232.59,343.38 L 233.62,343.11 L 235.52,342.64 L 236.44,342.41 L 238.06,342.03 L 238.83,341.86 L 240.12,341.59 L 241.61,341.33 L 242.62,341.19 L 244.21,341.16 L 245.00,341.20 L 246.66,341.75 L 247.11,341.94 L 248.15,342.47 L 248.69,342.77 L 249.98,343.54 L 250.67,343.96 L 252.29,345.01 L 255.21,346.94 L 257.66,348.58 L 263.21,351.88 L 266.04,353.52 L 271.88,356.58 L 274.78,358.05 L 280.30,360.55 L 281.62,361.12 L 284.11,362.11 L 287.50,363.31 L 289.32,363.89 L 293.21,364.84 L 295.22,365.29 L 299.74,366.00 L 300.93,366.16 L 303.49,366.45 L 304.81,366.60 L 307.66,366.85 L 309.12,366.97 L 312.30,367.18 L 317.50,367.47 L 318.63,367.53 L 320.70,367.65 L 321.69,367.71 L 323.49,367.85 L 325.23,367.99 L 327.96,368.33 L 329.21,368.50 L 331.03,368.92 L 332.84,369.64 L 333.31,369.95 L 334.19,370.77 L 334.62,371.22 L 335.42,372.30 L 336.19,373.43 L 337.43,376.32 L 337.98,377.84 L 338.71,381.28 L 339.12,386.77 L 339.10,388.19 L 338.92,390.46 L 338.79,391.54 L 338.27,393.56 L 337.95,394.59 L 336.90,396.94 L 336.60,397.58 L 335.86,399.02 L 334.53,401.49 L 333.16,404.02 L 330.97,408.99 L 329.97,411.46 L 328.53,416.24 L 327.90,418.60 L 327.21,423.11 L 326.96,425.32 L 327.01,429.46 L 327.12,431.48 L 327.90,435.17 L 328.39,436.95 L 329.90,440.10 L 330.75,441.59 L 332.99,444.11 L 337.15,447.08 L 337.61,447.31 L 338.68,447.74 L 339.26,447.95 L 340.65,448.35 L 341.40,448.55 L 343.23,448.94 L 344.20,449.13 L 346.58,449.52 L 347.85,449.72 L 350.89,450.14 L 352.50,450.35 L 356.32,450.81 L 358.34,451.04 L 363.05,451.56 L 371.25,452.42 L 372.28,452.52 L 374.09,452.46 L 374.97,452.37 L 376.54,451.83 L 377.30,451.49 L 378.68,450.37 L 379.36,449.73 L 380.63,447.92 L 381.26,446.92 L 382.48,444.30 L 383.09,442.89 L 384.34,439.37 L 384.66,438.43 L 385.31,436.35 L 385.64,435.28 L 386.32,432.94 L 386.66,431.74 L 387.38,429.12 L 388.51,424.87 L 389.12,422.51 L 390.00,418.04 L 390.38,415.83 L 390.77,411.52 L 390.90,409.36 L 390.75,405.00 L 390.61,402.79 L 389.91,398.20 L 389.48,395.85 L 388.17,390.82 L 387.44,388.24 L 385.50,382.59 L 384.97,381.13 L 383.79,378.05 L 383.18,376.49 L 381.83,373.20 L 381.13,371.52 L 379.61,367.98 L 377.12,362.36 L 376.42,360.81 L 375.29,358.05 L 374.77,356.72 L 374.01,354.39 L 373.67,353.28 L 373.25,351.35 L 373.00,348.86 L 373.00,348.02 L 372.90,346.70 L 372.83,346.09 L 372.56,345.14 L 372.40,344.70 L 371.92,344.02 L 370.93,343.19 L 370.64,343.01 L 370.00,342.40 L 369.68,342.06 L 369.02,341.22 L 367.35,338.30 L 365.85,334.71 L 356.92,335.35 L 355.91,335.42 L 354.20,335.53 L 353.40,335.57 L 352.06,335.63 L 351.42,335.65 L 350.39,335.64 L 349.90,335.63 L 349.10,335.56 L 348.35,335.46 L 347.32,335.04 L 345.99,333.99 L 345.30,333.30 L 344.44,331.93 L 344.10,331.25 L 343.90,329.94 L 343.88,329.30 L 344.30,328.08 L 344.58,327.50 L 345.57,326.43 L 346.14,325.91 L 347.65,325.03 L 348.47,324.61 L 350.47,323.95 L 351.52,323.65 L 353.95,323.25 L 358.03,323.01 L 358.93,323.00 L 360.38,322.88 L 361.06,322.80 L 362.18,322.45 L 362.72,322.24 L 363.71,321.61 L 365.23,320.25 L 365.97,319.49 L 367.71,317.81 L 368.13,317.40 L 368.92,316.67 L 369.91,315.79 L 370.34,315.43 L 370.92,314.72 L 371.18,314.35 L 371.44,313.44 L 371.54,312.94 L 371.55,311.59 L 371.30,308.79 L 371.06,306.73 L 369.85,302.34 L 369.51,301.27 L 368.73,299.22 L 368.33,298.22 L 367.48,296.44 L 367.06,295.59 L 366.21,294.21 L 365.80,293.58 L 365.03,292.73 L 364.66,292.39 L 364.03,292.22 L 363.31,292.87 L 363.03,293.57 L 362.14,294.82 L 361.66,295.42 L 360.53,296.37 L 359.96,296.80 L 358.81,297.29 L 357.27,297.34 L 356.47,297.06 L 355.24,296.20 L 354.69,295.71 L 353.93,294.30 L 353.59,293.52 L 353.21,291.40 L 353.00,287.23 L 353.00,286.52 L 353.02,285.30 L 353.03,284.72 L 353.09,283.73 L 353.16,282.79 L 353.48,281.41 L 353.68,280.77 L 354.36,279.68 L 355.92,277.92 L 356.51,277.34 L 357.57,276.43 L 358.08,276.03 L 359.02,275.48 L 359.47,275.25 L 360.29,275.07 L 360.69,275.02 L 361.41,275.21 L 361.77,275.35 L 362.41,275.92 L 362.73,276.25 L 363.31,277.19 L 363.59,277.71 L 364.12,279.05 L 364.88,281.50 L 365.03,282.05 L 365.58,283.44 L 365.88,284.16 L 366.67,285.75 L 369.44,290.36 L 369.92,291.03 L 370.99,292.87 L 371.54,293.86 L 372.66,296.12 L 373.22,297.27 L 374.24,299.67 L 375.54,303.11 L 375.90,304.20 L 376.63,306.18 L 376.99,307.12 L 377.66,308.68 L 377.97,309.40 L 378.50,310.38 L 379.06,311.00 L 379.17,311.00 L 379.64,310.85 L 379.92,310.75 L 380.70,310.40 L 381.13,310.20 L 382.20,309.68 L 382.77,309.39 L 384.10,308.70 L 384.80,308.34 L 386.37,307.49 L 387.18,307.05 L 388.96,306.06 L 395.00,302.63 L 396.28,301.89 L 398.58,300.90 L 399.70,300.49 L 401.82,300.15 L 402.89,300.06 L 405.05,300.34 L 408.56,301.46 L 409.15,301.71 L 410.23,302.38 L 410.76,302.75 L 411.70,303.65 L 412.62,304.61 L 414.02,307.19 L 414.66,308.58 L 415.47,311.94 L 415.98,317.78 L 415.98,319.64 L 415.67,322.85 L 415.45,324.38 L 414.66,326.99 L 414.20,328.22 L 412.91,330.30 L 410.37,332.93 L 409.75,333.42 L 408.65,334.09 L 408.09,334.39 L 406.86,334.72 L 406.20,334.85 L 404.49,334.90 L 401.00,334.75 L 399.21,334.63 L 395.90,334.21 L 395.15,334.10 L 393.94,333.88 L 392.75,333.55 L 392.31,333.36 L 391.68,333.16 L 391.41,333.09 L 391.09,333.11 L 390.97,333.15 L 390.95,333.36 L 390.97,333.49 L 391.22,333.87 L 391.37,334.08 L 391.87,334.59 L 392.15,334.86 L 392.87,335.48 L 395.79,337.61 L 396.73,338.22 L 398.34,339.53 L 399.13,340.23 L 400.61,341.91 L 401.36,342.82 L 402.93,345.13 L 403.34,345.76 L 404.21,347.19 L 405.62,349.61 L 405.97,350.22 L 406.91,351.82 L 407.42,352.67 L 408.63,354.70 L 409.27,355.76 L 410.72,358.13 L 411.46,359.36 L 413.09,361.99 L 414.74,364.68 L 418.38,370.51 L 423.90,379.29 L 424.77,380.65 L 426.36,383.17 L 427.14,384.39 L 428.56,386.66 L 429.25,387.76 L 430.50,389.80 L 431.11,390.79 L 432.22,392.62 L 433.29,394.40 L 435.02,397.43 L 435.82,398.87 L 437.08,401.36 L 437.66,402.55 L 438.55,404.68 L 438.95,405.72 L 439.54,407.66 L 440.65,413.65 L 441.28,419.00 L 448.39,419.01 L 451.06,419.01 L 456.03,419.33 L 458.46,419.54 L 462.96,420.29 L 465.16,420.71 L 469.21,421.88 L 474.80,424.11 L 476.57,424.97 L 480.00,427.11 L 481.66,428.22 L 484.55,430.57 L 485.22,431.15 L 486.37,432.28 L 486.91,432.84 L 487.78,433.89 L 488.16,434.40 L 488.68,435.32 L 489.00,436.49 L 489.00,436.91 L 488.68,437.46 L 488.55,437.58 L 488.13,437.75 L 487.88,437.83 L 487.15,437.93 L 486.75,437.98 L 485.65,438.01 L 485.06,438.02 L 483.52,437.99 L 482.70,437.98 L 480.65,437.90 L 476.92,437.74 L 475.26,437.66 L 472.26,437.55 L 470.83,437.49 L 468.49,437.43 L 467.43,437.41 L 466.00,437.41 L 465.71,437.41 L 465.36,437.43 L 465.17,437.48 L 465.22,437.52 L 465.92,437.85 L 466.35,438.04 L 467.70,438.63 L 468.43,438.95 L 470.25,439.72 L 473.30,441.00 L 475.28,441.82 L 478.90,443.77 L 480.66,444.80 L 483.83,447.16 L 485.36,448.39 L 488.06,451.13 L 489.36,452.55 L 491.57,455.65 L 492.62,457.24 L 494.34,460.67 L 495.14,462.43 L 496.35,466.18 L 496.89,468.09 L 497.57,472.13 L 497.98,478.50 L 497.98,480.92 L 497.49,485.58 L 497.17,487.87 L 496.05,492.23 L 495.42,494.36 L 493.71,498.39 L 492.78,500.35 L 490.49,504.00 L 489.28,505.78 L 486.44,509.01 L 484.96,510.58 L 481.61,513.37 L 479.87,514.70 L 476.02,517.00 L 469.71,519.86 L 468.66,520.25 L 466.33,520.88 L 465.13,521.17 L 462.59,521.59 L 460.00,521.95 L 454.50,522.08 L 451.74,522.04 L 446.36,521.35 L 445.04,521.13 L 442.55,520.54 L 441.32,520.22 M 464.25,504.01 L 465.50,503.54 L 467.85,502.30 L 469.00,501.64 L 471.13,500.05 L 472.17,499.21 L 474.04,497.31 L 474.95,496.32 L 476.53,494.16 L 477.29,493.04 L 478.56,490.67 L 479.15,489.45 L 480.06,486.91 L 480.47,485.62 L 481.00,482.95 L 481.33,478.88 L 481.33,477.24 L 480.84,474.09 L 480.51,472.53 L 479.35,469.51 L 478.69,468.02 L 476.85,465.12 L 473.31,460.85 L 472.63,460.14 L 471.00,458.88 L 470.15,458.28 L 468.31,457.27 L 467.38,456.79 L 465.48,456.05 L 464.54,455.72 L 462.72,455.27 L 461.84,455.10 L 460.26,454.99 L 459.51,454.98 L 458.31,455.23 L 457.77,455.41 L 457.09,456.05 L 456.84,457.50 L 456.94,458.09 L 457.65,459.50 L 458.07,460.22 L 459.19,461.63 L 459.77,462.29 L 460.97,463.31 L 462.49,464.00 L 462.71,464.00 L 463.28,464.23 L 463.58,464.38 L 464.26,464.87 L 464.95,465.42 L 466.51,467.09 L 467.29,467.99 L 468.74,470.07 L 470.45,473.22 L 470.99,474.51 L 471.62,476.97 L 471.86,478.19 L 471.90,480.59 L 471.84,481.79 L 471.28,484.22 L 469.75,487.98 L 469.02,489.41 L 467.41,491.69 L 466.57,492.73 L 464.66,494.30 L 463.65,495.00 L 461.31,495.94 L 457.17,496.76 L 455.41,496.93 L 452.23,496.56 L 450.69,496.26 L 447.96,494.96 L 446.65,494.20 L 444.37,491.98 L 441.50,487.62 L 440.77,486.15 L 439.81,483.64 L 439.42,482.43 L 439.13,480.19 L 439.06,479.07 L 439.41,476.78 L 440.64,472.94 L 441.03,471.97 L 441.51,470.60 L 441.70,469.98 L 441.76,469.05 L 441.74,468.61 L 441.36,467.76 L 440.28,466.17 L 439.92,465.70 L 439.27,464.94 L 438.94,464.60 L 438.34,464.13 L 438.04,463.92 L 437.47,463.73 L 437.18,463.68 L 436.62,463.78 L 436.34,463.86 L 435.76,464.26 L 435.47,464.50 L 434.85,465.21 L 434.54,465.60 L 433.87,466.62 L 432.78,468.50 L 431.82,470.25 L 430.66,473.94 L 430.19,475.79 L 429.96,479.57 L 429.95,481.46 L 430.58,485.19 L 431.00,487.03 L 432.42,490.56 L 433.22,492.28 L 435.36,495.44 L 436.51,496.96 L 439.30,499.61 L 440.77,500.86 L 444.14,502.85 L 449.76,504.92 L 451.24,505.27 L 453.73,505.66 L 454.92,505.81 L 457.10,505.79 L 458.18,505.72 L 460.42,505.24 L 461.58,504.95 M 231.12,499.21 L 231.90,498.80 L 233.53,497.75 L 234.34,497.20 L 235.92,495.95 L 236.69,495.31 L 238.10,493.96 L 239.87,491.96 L 243.28,487.50 L 239.20,487.20 L 238.43,487.14 L 237.05,487.18 L 236.39,487.24 L 235.12,487.54 L 234.49,487.72 L 233.19,488.32 L 231.04,489.59 L 229.97,490.30 L 227.70,491.36 L 226.56,491.82 L 224.19,492.41 L 223.00,492.65 L 220.61,492.79 L 219.41,492.81 L 217.07,492.51 L 215.92,492.31 L 213.71,491.59 L 212.63,491.17 L 210.63,490.04 L 209.67,489.43 L 207.96,487.90 L 205.80,485.18 L 205.41,484.55 L 204.77,483.09 L 204.48,482.33 L 204.03,480.68 L 203.63,478.99 L 203.40,475.39 L 203.38,473.60 L 203.91,470.28 L 204.10,469.50 L 204.61,468.10 L 205.59,466.33 L 206.32,465.34 L 207.77,463.70 L 208.51,462.93 L 210.05,461.70 L 210.84,461.14 L 212.57,460.30 L 213.47,459.93 L 215.47,459.47 L 216.52,459.29 L 218.91,459.20 L 220.16,459.19 L 223.01,459.45 L 224.51,459.61 L 227.94,460.19 L 233.82,461.42 L 235.29,461.75 L 238.69,462.45 L 240.43,462.80 L 244.05,463.48 L 245.84,463.81 L 249.24,464.38 L 253.63,465.04 L 254.68,465.18 L 256.44,465.40 L 257.28,465.50 L 258.67,465.65 L 259.33,465.71 L 260.43,465.77 L 260.95,465.80 L 261.82,465.77 L 262.65,465.73 L 263.94,465.38 L 265.88,464.41 L 266.74,463.90 L 268.08,462.94 L 268.37,462.73 L 268.75,462.37 L 269.00,462.00 L 269.00,461.93 L 268.22,461.69 L 267.72,461.56 L 266.11,461.26 L 265.21,461.10 L 262.97,460.76 L 259.15,460.26 L 256.05,459.89 L 249.33,458.75 L 245.88,458.11 L 238.42,456.43 L 234.59,455.52 L 226.35,453.29 L 213.08,449.31 L 211.34,448.76 L 208.47,447.85 L 207.12,447.43 L 204.93,446.77 L 203.92,446.47 L 202.32,446.04 L 201.59,445.85 L 200.47,445.63 L 199.96,445.54 L 199.20,445.51 L 198.86,445.52 L 198.36,445.66 L 197.29,446.62 L 196.98,447.03 L 196.63,447.67 L 196.50,447.97 L 196.52,448.48 L 196.58,448.74 L 197.00,449.28 L 198.11,450.29 L 198.72,450.78 L 200.11,451.80 L 201.82,452.92 L 202.14,453.10 L 202.51,453.46 L 202.66,453.65 L 202.66,454.14 L 202.62,454.42 L 202.23,455.17 L 201.17,456.76 L 200.32,457.95 L 198.88,460.44 L 198.21,461.71 L 197.11,464.32 L 196.60,465.64 L 195.85,468.32 L 195.52,469.67 L 195.11,472.38 L 194.96,473.73 L 194.91,476.42 L 194.93,477.76 L 195.25,480.38 L 195.45,481.68 L 196.14,484.19 L 197.58,487.78 L 198.35,489.34 L 200.31,492.10 L 201.35,493.42 L 203.75,495.69 L 205.00,496.76 L 207.76,498.51 L 209.17,499.31 L 212.19,500.50 L 213.71,501.02 L 216.88,501.62 L 218.48,501.84 L 221.70,501.81 L 223.31,501.71 L 226.50,501.02 L 228.07,500.59 M 455.61,471.81 L 455.49,471.20 L 454.88,469.34 L 454.53,468.33 L 453.56,465.87 L 453.04,464.59 L 451.83,461.81 L 451.20,460.41 L 449.89,457.57 L 449.23,456.18 L 447.93,453.56 L 447.30,452.31 L 446.15,450.19 L 445.61,449.22 L 444.74,447.87 L 444.55,447.59 L 444.24,447.22 L 443.90,447.00 L 443.67,447.00 L 443.00,447.59 L 441.99,449.02 L 441.77,449.43 L 441.61,450.38 L 441.58,450.89 L 441.84,452.26 L 442.04,453.03 L 442.80,455.09 L 443.03,455.66 L 443.59,456.99 L 444.59,459.27 L 445.50,461.30 L 447.04,464.70 L 447.77,466.30 L 448.99,468.91 L 449.57,470.13 L 450.52,472.03 L 450.97,472.90 L 451.71,474.19 L 452.06,474.77 L 452.63,475.52 L 452.91,475.85 L 453.38,476.16 L 453.61,476.27 L 454.02,476.24 L 454.64,475.88 L 455.15,475.46 L 455.65,474.23 L 455.81,473.54 M 263.32,446.86 L 263.76,446.63 L 264.80,445.91 L 265.34,445.51 L 266.50,444.51 L 267.68,443.46 L 270.15,440.86 L 271.35,439.53 L 273.44,436.80 L 273.91,436.14 L 274.70,434.91 L 275.57,433.24 L 276.06,432.09 L 276.57,429.45 L 276.75,428.10 L 276.67,425.32 L 276.55,423.95 L 275.90,421.39 L 274.30,418.14 L 273.97,417.68 L 273.03,416.76 L 272.52,416.29 L 271.27,415.37 L 269.94,414.45 L 266.54,412.73 L 264.76,411.89 L 260.75,410.48 L 254.50,408.93 L 253.10,408.68 L 249.95,408.29 L 248.33,408.12 L 244.85,407.89 L 241.31,407.69 L 233.82,407.73 L 231.95,407.78 L 228.30,407.97 L 226.50,408.09 L 223.06,408.42 L 221.38,408.61 L 218.30,409.08 L 214.23,409.92 L 211.96,410.51 L 208.02,411.70 L 207.10,412.00 L 205.42,412.58 L 204.62,412.88 L 203.21,413.44 L 202.54,413.72 L 201.43,414.26 L 200.91,414.53 L 200.10,415.03 L 199.74,415.27 L 199.28,415.71 L 199.00,416.32 L 199.00,416.45 L 199.28,416.64 L 199.47,416.73 L 200.07,416.81 L 202.75,416.61 L 205.82,416.07 L 211.94,415.27 L 214.99,414.92 L 220.98,414.47 L 223.95,414.29 L 229.68,414.18 L 232.50,414.17 L 237.84,414.40 L 240.45,414.56 L 245.26,415.11 L 247.59,415.43 L 251.75,416.31 L 253.73,416.79 L 257.10,417.97 L 261.14,420.10 L 261.50,420.36 L 262.29,421.16 L 262.69,421.60 L 263.50,422.67 L 265.47,426.21 L 266.01,427.58 L 266.55,430.34 L 266.72,431.73 L 266.50,434.56 L 266.29,435.98 L 265.31,438.89 L 262.98,443.37 L 262.59,443.99 L 261.96,445.01 L 261.66,445.49 L 261.23,446.25 L 261.04,446.60 L 260.81,447.11 L 260.72,447.34 L 260.69,447.64 L 260.70,447.76 L 260.88,447.84 L 260.99,447.86 L 261.38,447.76 L 261.81,447.62 M 409.93,325.13 L 410.50,324.07 L 411.21,321.77 L 411.51,320.60 L 411.68,318.19 L 411.70,316.98 L 411.32,314.61 L 410.14,311.28 L 409.75,310.51 L 408.93,309.23 L 408.53,308.63 L 407.70,307.71 L 407.28,307.29 L 406.45,306.73 L 406.04,306.49 L 405.22,306.30 L 404.82,306.24 L 404.04,306.41 L 403.65,306.54 L 402.92,307.08 L 402.56,307.39 L 401.89,308.30 L 400.97,310.08 L 400.79,310.52 L 400.52,311.66 L 400.40,312.26 L 400.25,313.66 L 400.13,315.09 L 400.23,318.26 L 400.33,319.82 L 400.82,322.61 L 400.97,323.24 L 401.32,324.29 L 401.95,325.44 L 402.40,325.99 L 403.79,326.64 L 404.53,326.90 L 406.16,326.97 L 406.97,326.94 L 408.42,326.46 L 409.08,326.15 M 882.72,404.62 L 879.83,403.58 L 874.60,401.02 L 872.08,399.66 L 867.58,396.49 L 865.43,394.82 L 861.69,391.04 L 859.91,389.07 L 856.91,384.69 L 855.51,382.42 L 853.27,377.44 L 852.25,374.88 L 850.77,369.32 L 850.13,366.47 L 849.42,360.34 L 849.22,350.50 L 849.27,349.20 L 849.37,347.01 L 849.42,345.98 L 849.55,344.21 L 849.68,342.52 L 850.16,339.87 L 850.46,338.58 L 851.42,335.97 L 851.71,335.27 L 852.40,333.71 L 853.67,331.00 L 854.78,328.66 L 857.19,324.48 L 858.43,322.47 L 861.14,318.93 L 862.54,317.24 L 865.61,314.31 L 867.19,312.92 L 870.67,310.57 L 872.46,309.46 L 876.41,307.65 L 878.44,306.81 L 882.90,305.51 L 885.20,304.91 L 890.24,304.09 L 898.50,303.34 L 902.02,303.17 L 908.58,303.39 L 911.77,303.60 L 917.67,304.57 L 920.54,305.16 L 925.79,306.90 L 928.34,307.86 L 932.95,310.37 L 935.18,311.71 L 939.16,314.99 L 941.07,316.72 L 944.42,320.76 L 946.01,322.88 L 948.74,327.70 L 952.14,335.81 L 952.51,336.90 L 953.12,339.47 L 953.40,340.81 L 953.84,343.78 L 954.24,346.83 L 954.52,353.48 L 954.55,355.15 L 954.47,358.43 L 954.41,360.05 L 954.16,363.14 L 954.01,364.65 L 953.57,367.41 L 952.71,371.00 L 952.11,372.92 L 950.68,376.55 L 949.93,378.33 L 948.21,381.69 L 947.31,383.33 L 945.29,386.41 L 944.24,387.91 L 941.93,390.69 L 940.74,392.05 L 938.14,394.55 L 936.81,395.76 L 933.93,397.96 L 932.46,399.02 L 929.30,400.93 L 924.26,403.44 L 922.70,404.11 L 920.20,405.05 L 918.97,405.46 L 916.38,405.98 L 915.68,406.09 L 914.09,406.26 L 913.25,406.34 L 911.30,406.46 L 910.27,406.51 L 907.84,406.60 L 903.50,406.72 L 901.90,406.76 L 899.18,406.82 L 897.89,406.84 L 895.71,406.84 L 894.68,406.84 L 892.92,406.79 L 892.09,406.75 L 890.63,406.63 L 889.22,406.49 L 886.79,405.94 L 885.55,405.61 M 913.69,384.85 L 914.91,384.27 L 917.13,382.87 L 918.20,382.13 L 920.12,380.39 L 921.04,379.48 L 922.66,377.41 L 923.42,376.33 L 924.73,373.93 L 925.35,372.68 L 926.35,369.94 L 926.82,368.53 L 927.52,365.46 L 927.83,363.88 L 928.22,360.48 L 928.46,355.00 L 928.47,353.15 L 928.22,349.64 L 928.06,347.91 L 927.49,344.66 L 927.16,343.07 L 926.27,340.11 L 925.78,338.67 L 924.59,336.01 L 923.95,334.73 L 922.46,332.41 L 921.67,331.29 L 919.90,329.33 L 918.97,328.40 L 916.92,326.81 L 913.56,324.89 L 912.87,324.57 L 911.20,324.06 L 910.33,323.83 L 908.39,323.47 L 906.40,323.16 L 902.01,323.00 L 899.82,323.00 L 895.64,323.46 L 894.64,323.62 L 892.84,324.05 L 890.50,324.87 L 889.44,325.36 L 887.46,326.57 L 886.49,327.21 L 884.71,328.72 L 883.84,329.50 L 882.26,331.27 L 881.50,332.18 L 880.13,334.18 L 879.47,335.20 L 878.31,337.39 L 877.76,338.50 L 876.82,340.85 L 875.94,343.24 L 874.85,348.35 L 874.42,350.95 L 874.28,356.29 L 874.33,358.96 L 875.18,364.26 L 875.45,365.57 L 876.20,368.14 L 876.60,369.41 L 877.61,371.88 L 878.14,373.10 L 879.41,375.43 L 881.63,378.75 L 882.41,379.78 L 884.36,381.57 L 885.39,382.42 L 887.77,383.86 L 889.01,384.53 L 891.71,385.59 L 893.09,386.08 L 896.01,386.74 L 897.49,387.02 L 900.52,387.27 L 902.04,387.34 L 905.07,387.15 L 906.58,387.00 L 909.51,386.35 L 910.96,385.97 M 521.00,356.00 L 521.00,352.56 L 521.01,345.94 L 521.01,342.68 L 521.02,336.53 L 521.03,333.52 L 521.04,327.97 L 521.05,325.28 L 521.07,320.47 L 521.08,318.17 L 521.11,314.24 L 521.12,313.32 L 521.13,311.66 L 521.14,310.87 L 521.15,309.49 L 521.16,308.83 L 521.18,307.73 L 521.18,307.22 L 521.20,306.42 L 521.21,306.06 L 521.22,305.59 L 521.25,305.25 L 521.27,305.20 L 521.85,305.10 L 522.23,305.05 L 523.48,304.97 L 524.18,304.92 L 526.02,304.85 L 527.00,304.81 L 529.36,304.75 L 530.59,304.72 L 533.39,304.67 L 534.83,304.65 L 538.00,304.62 L 548.50,304.60 L 550.07,304.60 L 552.96,304.62 L 554.36,304.62 L 556.92,304.64 L 558.16,304.65 L 560.43,304.67 L 561.52,304.68 L 563.51,304.71 L 565.43,304.74 L 568.57,304.83 L 570.03,304.88 L 572.41,305.02 L 573.53,305.09 L 575.36,305.30 L 576.23,305.41 L 577.73,305.70 L 581.95,306.92 L 583.90,307.60 L 587.41,309.22 L 589.10,310.07 L 592.10,312.04 L 593.53,313.07 L 596.01,315.39 L 597.19,316.60 L 599.15,319.27 L 600.06,320.64 L 601.50,323.65 L 602.15,325.20 L 603.05,328.54 L 603.44,330.26 L 603.82,333.93 L 603.78,339.81 L 603.71,340.76 L 603.42,342.84 L 603.25,343.89 L 602.80,346.03 L 602.56,347.08 L 602.00,349.04 L 601.10,351.52 L 600.79,352.20 L 599.92,353.70 L 599.45,354.46 L 598.31,356.05 L 597.11,357.65 L 594.25,360.76 L 592.80,362.25 L 589.92,364.63 L 589.23,365.15 L 587.96,365.93 L 586.31,366.64 L 585.64,366.80 L 584.72,367.40 L 584.32,368.37 L 584.35,368.45 L 584.62,368.96 L 584.79,369.26 L 585.32,370.19 L 585.61,370.70 L 586.37,372.00 L 586.77,372.68 L 587.72,374.30 L 588.22,375.14 L 589.34,377.02 L 589.92,377.99 L 591.17,380.09 L 595.30,386.96 L 596.75,389.36 L 599.36,393.81 L 599.98,394.87 L 601.11,396.84 L 601.65,397.80 L 602.61,399.53 L 603.07,400.35 L 603.83,401.78 L 604.19,402.45 L 604.72,403.53 L 604.96,404.02 L 605.25,404.70 L 605.37,405.21 L 605.34,405.27 L 605.02,405.37 L 604.82,405.42 L 604.20,405.52 L 603.50,405.61 L 601.36,405.77 L 600.19,405.84 L 597.29,405.94 L 592.42,406.00 L 579.95,406.00 L 577.45,401.75 L 577.10,401.17 L 576.15,399.55 L 575.64,398.69 L 574.47,396.71 L 570.83,390.57 L 570.27,389.62 L 568.98,387.41 L 568.32,386.27 L 566.96,383.90 L 566.29,382.72 L 565.03,380.48 L 563.43,377.57 L 560.13,371.50 L 553.07,371.21 L 546.00,370.91 L 546.00,388.46 L 546.00,406.00 L 533.50,406.00 L 521.00,406.00 L 521.00,356.00 M 571.99,349.00 L 573.34,348.32 L 575.36,346.89 L 576.27,346.15 L 577.52,344.45 L 578.06,343.55 L 578.66,341.35 L 579.00,337.24 L 579.00,335.92 L 578.78,333.62 L 578.63,332.54 L 578.07,330.69 L 577.73,329.82 L 576.75,328.39 L 576.19,327.71 L 574.72,326.64 L 573.92,326.14 L 571.89,325.39 L 570.80,325.05 L 568.15,324.58 L 566.74,324.37 L 563.40,324.13 L 557.53,324.00 L 546.00,324.00 L 546.00,337.43 L 546.00,350.87 L 548.75,351.35 L 549.48,351.47 L 551.26,351.62 L 552.20,351.68 L 554.29,351.69 L 556.44,351.68 L 561.09,351.31 L 563.38,351.08 L 567.53,350.36 L 568.48,350.16 L 570.11,349.72 L 570.86,349.49 M 616.01,404.28 L 616.01,404.04 L 616.23,402.96 L 616.38,402.34 L 616.84,400.67 L 617.10,399.79 L 617.74,397.75 L 618.84,394.50 L 619.42,392.87 L 620.73,389.18 L 621.41,387.28 L 622.86,383.19 L 624.34,379.04 L 627.43,370.44 L 628.19,368.33 L 629.64,364.30 L 630.35,362.33 L 631.65,358.72 L 632.28,356.99 L 633.36,354.02 L 634.64,350.50 L 635.29,348.76 L 636.32,345.94 L 636.82,344.59 L 637.76,341.99 L 638.24,340.64 L 639.35,337.53 L 639.65,336.69 L 640.33,334.78 L 641.49,331.50 L 641.74,330.81 L 642.38,329.05 L 642.71,328.12 L 643.47,326.06 L 645.72,320.00 L 646.40,318.21 L 647.89,314.01 L 648.25,312.99 L 648.89,311.11 L 649.66,308.75 L 651.15,304.00 L 664.45,304.00 L 665.63,304.00 L 667.75,304.02 L 668.77,304.03 L 670.58,304.07 L 671.44,304.09 L 672.94,304.16 L 673.66,304.20 L 674.88,304.29 L 676.03,304.39 L 677.54,304.68 L 678.73,305.25 L 678.86,305.42 L 679.35,306.41 L 679.62,306.99 L 680.31,308.63 L 680.67,309.51 L 681.49,311.60 L 682.75,315.00 L 682.85,315.29 L 683.14,316.07 L 683.29,316.50 L 683.66,317.53 L 684.05,318.62 L 685.09,321.48 L 685.64,323.01 L 686.95,326.65 L 687.64,328.56 L 689.19,332.84 L 689.99,335.05 L 691.73,339.85 L 692.62,342.30 L 694.49,347.48 L 700.40,363.80 L 701.40,366.57 L 703.33,371.92 L 704.28,374.55 L 706.07,379.53 L 706.94,381.96 L 708.55,386.46 L 709.33,388.64 L 710.71,392.55 L 711.37,394.42 L 712.50,397.63 L 713.02,399.13 L 713.85,401.52 L 714.22,402.60 L 714.70,404.06 L 714.80,404.37 L 714.92,404.77 L 715.00,405.08 L 715.00,405.16 L 714.77,405.29 L 714.63,405.36 L 714.12,405.47 L 713.54,405.58 L 711.59,405.72 L 710.49,405.78 L 707.60,405.83 L 702.36,405.78 L 689.71,405.50 L 686.47,396.50 L 683.23,387.50 L 664.86,387.50 L 646.50,387.50 L 643.47,396.50 L 640.43,405.50 L 628.22,405.78 L 626.82,405.81 L 624.49,405.86 L 623.39,405.87 L 621.60,405.88 L 620.77,405.88 L 619.45,405.85 L 618.84,405.82 L 617.93,405.74 L 617.51,405.69 L 616.93,405.54 L 616.67,405.46 L 616.34,405.24 L 616.07,405.00 M 676.39,364.36 L 676.32,364.00 L 676.08,363.05 L 675.95,362.55 L 675.60,361.44 L 674.37,358.11 L 673.95,357.12 L 673.18,355.03 L 673.01,354.54 L 672.73,353.68 L 672.47,352.70 L 672.41,352.45 L 672.12,351.49 L 671.94,350.95 L 671.45,349.54 L 669.53,344.48 L 668.82,342.72 L 667.54,339.05 L 667.25,338.20 L 666.79,336.71 L 666.35,335.01 L 666.18,334.17 L 665.71,332.73 L 665.59,332.41 L 665.36,331.93 L 665.04,331.52 L 665.00,331.50 L 664.83,331.77 L 664.74,331.95 L 664.45,332.59 L 664.29,332.96 L 663.90,333.92 L 663.70,334.44 L 663.22,335.69 L 662.73,337.00 L 661.55,340.26 L 660.94,341.97 L 659.62,345.74 L 658.95,347.66 L 657.62,351.59 L 656.97,353.54 L 655.76,357.24 L 655.18,359.03 L 654.21,362.14 L 653.99,362.87 L 653.62,364.14 L 653.18,365.75 L 653.12,365.99 L 653.62,366.34 L 653.80,366.43 L 654.36,366.56 L 654.67,366.63 L 655.50,366.73 L 655.96,366.78 L 657.09,366.85 L 657.69,366.89 L 659.15,366.94 L 659.92,366.96 L 661.73,366.99 L 664.86,367.00 L 676.87,367.00 L 676.39,364.36 M 739.45,404.93 L 739.43,404.89 L 739.39,404.61 L 739.37,404.44 L 739.32,403.90 L 739.28,403.29 L 739.21,401.36 L 739.17,400.28 L 739.11,397.49 L 739.08,395.99 L 739.03,392.45 L 739.01,390.59 L 738.97,386.40 L 738.96,384.24 L 738.94,379.53 L 738.93,377.12 L 738.93,371.99 L 738.94,363.95 L 739.10,324.05 L 723.30,323.78 L 707.50,323.50 L 707.43,313.75 L 707.37,304.00 L 750.68,304.00 L 794.00,304.00 L 794.00,314.00 L 794.00,324.00 L 778.50,324.00 L 763.00,324.00 L 763.00,365.00 L 763.00,406.00 L 751.56,406.00 L 749.79,406.00 L 746.74,405.93 L 745.31,405.88 L 743.01,405.71 L 741.96,405.62 L 740.52,405.37 L 739.92,405.24 M 809.00,355.00 L 809.00,304.00 L 821.00,304.00 L 833.00,304.00 L 833.00,355.00 L 833.00,406.00 L 821.00,406.00 L 809.00,406.00 L 809.00,355.00 M 970.00,355.03 L 970.00,304.00 L 981.97,304.00 L 993.95,304.00 L 1006.72,323.06 L 1008.48,325.68 L 1012.25,331.32 L 1014.13,334.15 L 1017.83,339.72 L 1018.74,341.08 L 1020.45,343.67 L 1021.29,344.94 L 1022.84,347.29 L 1023.59,348.43 L 1024.92,350.45 L 1026.60,353.03 L 1027.58,354.54 L 1029.41,357.22 L 1030.30,358.50 L 1031.81,360.56 L 1032.16,361.02 L 1032.78,361.80 L 1033.07,362.16 L 1033.54,362.70 L 1033.76,362.94 L 1034.08,363.22 L 1034.35,363.31 L 1034.40,363.27 L 1034.48,362.58 L 1034.53,362.15 L 1034.61,360.75 L 1034.64,359.96 L 1034.71,357.92 L 1034.75,356.83 L 1034.81,354.24 L 1034.84,352.88 L 1034.89,349.82 L 1034.91,348.23 L 1034.95,344.77 L 1034.97,343.00 L 1034.99,339.24 L 1035.00,333.33 L 1035.00,304.00 L 1046.50,304.00 L 1058.00,304.00 L 1058.00,355.00 L 1058.00,406.00 L 1046.75,405.98 L 1045.20,405.98 L 1042.30,405.92 L 1040.90,405.88 L 1038.49,405.76 L 1037.37,405.69 L 1035.73,405.52 L 1035.38,405.48 L 1034.87,405.38 L 1034.42,405.23 L 1034.35,405.18 L 1033.81,404.49 L 1033.48,404.05 L 1032.47,402.64 L 1031.92,401.85 L 1030.50,399.81 L 1029.74,398.72 L 1027.96,396.12 L 1027.04,394.76 L 1024.96,391.70 L 1023.89,390.12 L 1021.56,386.67 L 1020.38,384.90 L 1017.87,381.14 L 1013.95,375.25 L 1012.61,373.24 L 1010.04,369.37 L 1008.77,367.47 L 1006.37,363.89 L 1005.20,362.14 L 1003.03,358.93 L 1001.98,357.37 L 1000.09,354.59 L 999.19,353.27 L 997.64,351.01 L 996.91,349.96 L 995.76,348.31 L 995.23,347.57 L 994.53,346.60 L 994.02,346.00 L 993.99,346.00 L 993.92,346.61 L 993.88,347.00 L 993.82,348.35 L 993.79,349.10 L 993.73,351.10 L 993.70,352.17 L 993.65,354.74 L 993.63,356.09 L 993.59,359.15 L 993.57,360.73 L 993.54,364.20 L 993.53,365.98 L 993.51,369.77 L 993.50,375.75 L 993.50,405.50 L 981.75,405.78 L 970.00,406.06 L 970.00,355.03 Z" fill="rgba(96,199,166,1)"/>
</g>
</svg>